<?xml version="1.0" encoding="UTF-8"?>
<svg width="198px" height="287px" viewBox="0 0 198 287" version="1.1" xmlns="http://www.w3.org/2000/svg" xmlns:xlink="http://www.w3.org/1999/xlink">
    <title>Colored</title>
    <g id="Colored" stroke="none" stroke-width="1" fill="none" fill-rule="evenodd">
        <g id="feg-(2)">
            <g id="Group" fill="#000000" fill-rule="nonzero">
                <path d="M109.5,283.602026 C106.2,281.802026 96.8,278.602026 88.7,276.302026 C71,271.402026 65.8,268.902026 58.5,261.802026 C54.4,257.902026 51.6,256.102026 48.3,255.302026 C34.3,251.702026 24.8,242.102026 21.6,228.202026 C20.1,221.802026 19.7,221.202026 13.6,216.902026 C10.1,214.502026 9.3,209.302026 11.5,203.502026 C13,199.602026 13.1,198.002026 12.1,192.102026 C10.1,179.902026 10.7,169.002026 14.1,156.902026 L15.5,152.002026 L12.2,149.102026 C7.8,145.102026 4,139.402026 4,136.702026 C4,135.502026 3.1,133.302026 2,131.902026 C0.9,130.502026 -3.55271368e-15,127.902026 -3.55271368e-15,125.802026 C-3.55271368e-15,123.002026 0.7,121.802026 3.5,119.602026 C6.7,117.202026 7,116.502026 7,111.702026 C7,107.802026 7.6,105.602026 9.5,102.802026 C11.2,100.202026 12,97.8020256 12,94.7020256 C12,85.2020256 18.6,73.5020256 28.9,65.0020256 C33.5,61.2020256 34.7,59.4020256 37,53.1020256 C43,36.7020256 49,26.3020256 57.4,17.3020256 C75.2,-1.59797443 100.6,-5.39797443 121.6,7.80202557 C134.3,15.7020256 143.8,30.3020256 146.1,45.3020256 C147.3,52.7020256 147.3,52.8020256 152.2,56.1020256 C165.9,65.6020256 179.6,86.4020256 185.4,106.602026 C189.1,119.202026 190.2,127.102026 190.2,140.202026 C190.2,151.002026 190.4,152.302026 193.7,161.202026 C196.8,169.402026 197.4,172.202026 197.8,181.902026 C198.2,191.302026 197.9,194.102026 196.1,200.002026 C191.8,214.102026 181.7,225.902026 157,245.702026 C144.2,255.902026 132,267.402026 128.2,272.702026 L126.1,275.702026 L126.1,269.702026 C126.1,266.402026 126.7,262.002026 127.4,260.002026 C129.1,255.302026 127.9,255.102026 124.6,259.502026 C121.1,264.102026 119,269.402026 117.1,278.702026 L115.5,286.702026 L109.5,283.602026 L109.5,283.602026 Z M41.9,238.502026 C41.4,236.402026 41,231.902026 41,228.502026 L41,222.202026 L44.6,222.202026 C46.7,222.202026 49.3,223.002026 50.8,224.302026 L53.5,226.402026 L53.8,223.302026 C54.1,220.602026 54.5,220.202026 57,220.202026 C58.5,220.202026 62.2,221.402026 65.1,223.002026 C69.7,225.302026 71.6,225.702026 79,225.702026 C89,225.702026 93.2,224.002026 99.7,217.502026 C103.7,213.502026 105.9,209.602026 107.3,204.202026 L107.9,201.702026 L100.5,202.002026 L93,202.402026 L93,199.102026 C93,196.702026 93.8,195.202026 96.3,193.102026 C98,191.602026 99.2,190.002026 98.7,189.602026 C98.3,189.202026 88.9,188.802026 77.7,188.802026 C59.5,188.702026 56.7,188.902026 49.5,191.002026 C38.9,194.102026 29.3,199.302026 23.9,204.902026 C21.3,207.602026 20.3,209.202026 21.5,208.702026 C22.6,208.202026 25.2,207.702026 27.4,207.402026 L31.2,207.002026 L30.5,216.102026 C29.8,224.702026 29.9,225.502026 32.5,230.702026 C33.9,233.702026 36.8,237.502026 38.8,239.202026 C40.8,240.802026 42.5,242.202026 42.6,242.202026 C42.7,242.202026 42.4,240.502026 41.9,238.502026 L41.9,238.502026 Z M35.8,181.202026 C36.7,181.202026 37,178.202026 37,169.702026 L37,158.202026 L32.9,158.202026 C30.7,158.202026 28,157.702026 27,157.202026 C25.3,156.302026 24.8,156.702026 23.5,159.902026 C21.1,165.602026 19.9,172.002026 19.9,178.502026 C19.9,188.302026 20,188.302026 27.8,184.502026 C31.5,182.702026 35.1,181.202026 35.8,181.202026 L35.8,181.202026 Z M91,175.702026 C91,173.402026 91.3,173.202026 96.2,173.202026 C101.1,173.202026 101.2,173.102026 99.7,171.402026 C98.7,170.402026 98,168.102026 98,166.402026 C98,163.602026 98.3,163.302026 101.7,163.002026 L105.5,162.702026 L101.1,158.502026 C98.7,156.202026 94.8,153.302026 92.5,152.102026 C88.2,149.802026 88.2,149.802026 87.5,143.002026 C86.9,137.302026 86.5,136.202026 85.1,136.602026 C84.2,136.902026 81.3,137.402026 78.7,137.802026 C74.2,138.402026 73.8,138.702026 71.7,143.002026 C68.9,148.902026 65.8,151.102026 59.2,151.902026 L54,152.502026 L54,149.502026 C54,146.202026 51,142.602026 50.3,145.002026 C50,145.602026 48.8,146.202026 47.5,146.202026 C46.3,146.202026 44.7,146.902026 44,147.702026 C42.9,149.002026 43.2,149.202026 45.3,149.202026 L47.9,149.202026 L47.8,159.502026 C47.7,167.402026 48,170.402026 49.3,173.002026 L51.1,176.202026 L65.3,176.302026 C73.1,176.302026 81.3,176.702026 83.5,177.102026 C90.3,178.602026 91,178.402026 91,175.702026 L91,175.702026 Z M153,146.002026 C153,145.502026 152.6,145.202026 152,145.202026 C151.5,145.202026 151,146.202026 151,147.502026 C151,149.302026 151.2,149.402026 152,148.202026 C152.5,147.402026 153,146.402026 153,146.002026 Z M19,139.402026 C19,138.402026 20.2,136.502026 21.6,135.102026 C23,133.802026 25.3,130.602026 26.6,128.002026 C27.9,125.502026 29.5,123.202026 30.2,122.902026 C31.2,122.602026 31.2,122.202026 30.3,121.202026 C28.8,119.502026 17.7,123.402026 13.9,126.902026 C11.5,129.102026 11.3,129.702026 12.3,133.002026 C14,138.902026 19,143.602026 19,139.402026 L19,139.402026 Z M156.7,130.002026 C156.5,128.702026 156.3,129.502026 156.3,131.702026 C156.2,133.902026 156.4,134.902026 156.7,134.002026 C156.9,133.002026 156.9,131.202026 156.7,130.002026 Z M74,122.702026 C74,121.202026 75.8,117.802026 78,114.802026 C80.2,111.902026 82.5,108.102026 83.1,106.402026 C83.7,104.702026 84.9,103.102026 85.8,102.902026 C87.3,102.602026 87.3,102.402026 85.7,101.702026 C83.5,100.802026 69.4,104.002026 62.6,107.102026 C57,109.502026 56.2,111.302026 58.4,115.802026 C59.5,118.302026 61.3,119.802026 64.4,121.202026 C66.8,122.202026 69.1,123.502026 69.4,124.102026 C69.8,124.702026 71,125.202026 72.1,125.202026 C73.5,125.202026 74,124.502026 74,122.702026 Z M25,104.602026 C25,103.702026 22.2,104.302026 20.4,105.702026 C18.7,107.002026 18.8,107.102026 21.8,106.102026 C23.5,105.502026 25,104.802026 25,104.602026 L25,104.602026 Z M58.5,92.6020256 C71.3,88.6020256 86.1,85.2020256 91.4,85.2020256 C95.2,85.2020256 96,84.9020256 95.2,84.0020256 C94.5,83.1020256 90.5,82.7020256 81.3,82.8020256 C67.7,82.9020256 60.6,84.6020256 54.6,89.3020256 C52.4,91.1020256 49.3,95.2020256 50.2,95.2020256 C50.4,95.2020256 54.1,94.0020256 58.5,92.6020256 L58.5,92.6020256 Z" id="Shape"></path>
                <path d="M32.2,206.102026 C32.5,202.102026 32.8,201.802026 38,199.102026 C45,195.502026 50.9,194.202026 63.8,193.502026 L74,192.902026 L74,196.802026 C74,200.202026 73.6,200.902026 70.9,202.102026 C60.4,206.702026 45.2,210.202026 35.4,210.202026 C31.9,210.202026 31.9,210.202026 32.2,206.102026 L32.2,206.102026 Z" id="Path"></path>
            </g>
            <g id="Group" transform="translate(13.183777, 73.237363)" fill="#FFB133" fill-rule="nonzero">
                <path d="M29.7162229,173.664663 C23.6162229,170.664663 17.4162229,164.264663 15.3162229,158.664663 C14.0162229,155.064663 13.6162229,152.064663 14.0162229,145.564663 L14.4162229,137.064663 L10.6162229,139.064663 C5.81622289,141.464663 2.81622289,140.364663 2.81622289,136.064663 C2.81622289,133.964663 4.11622289,131.964663 8.11622289,128.164663 C17.7162229,119.164663 31.3162229,113.964663 50.1162229,112.064663 C55.5162229,111.564663 60.5162229,111.264663 61.1162229,111.464663 C61.8162229,111.664663 67.5162229,112.064663 73.8162229,112.364663 L85.3162229,112.864663 L80.2162229,110.464663 C72.9162229,107.164663 61.6162229,105.564663 48.5162229,106.164663 C42.3162229,106.464663 36.7162229,106.464663 36.0162229,106.264663 C32.9162229,105.164663 31.4162229,99.5646628 31.3162229,89.2646628 C31.3162229,83.7646628 31.0162229,79.3646628 30.6162229,79.5646628 C30.3162229,79.7646628 29.2162229,82.2646628 28.2162229,85.1646628 C26.9162229,89.1646628 26.6162229,92.4646628 27.1162229,100.264663 L27.6162229,110.164663 L24.5162229,111.264663 C22.7162229,111.864663 18.1162229,113.964663 14.2162229,116.064663 C10.2162229,118.164663 6.61622289,119.464663 5.91622289,119.064663 C3.51622289,117.564663 2.61622289,104.664663 4.11622289,95.6646628 C5.71622289,86.4646628 9.31622289,77.9646628 11.5162229,77.9646628 C12.3162229,77.9646628 14.1162229,78.8646628 15.5162229,79.9646628 C18.5162229,82.3646628 23.1162229,82.5646628 24.8162229,80.4646628 C25.8162229,79.1646628 25.7162229,78.9646628 24.0162229,78.9646628 C21.5162229,78.9646628 17.8162229,74.5646628 17.8162229,71.5646628 C17.8162229,67.3646628 20.5162229,64.9646628 25.4162229,64.9646628 C29.2162229,64.9646628 30.0162229,65.3646628 31.0162229,67.4646628 C32.6162229,71.0646628 33.3162229,70.5646628 33.3162229,65.9646628 C33.4162229,60.5646628 37.2162229,56.5646628 42.3162229,56.5646628 C47.3162229,56.5646628 50.1162229,59.5646628 50.1162229,65.0646628 C50.1162229,68.5646628 49.5162229,69.8646628 46.9162229,72.1646628 C43.0162229,75.6646628 43.0162229,76.0646628 46.9162229,74.9646628 C51.2162229,73.6646628 53.7162229,71.2646628 55.8162229,66.3646628 C57.5162229,62.5646628 58.0162229,62.1646628 62.5162229,61.5646628 C71.1162229,60.3646628 77.3162229,58.0646628 80.0162229,55.2646628 C83.5162229,51.5646628 85.8162229,45.9646628 85.8162229,40.9646628 C85.8162229,37.7646628 86.5162229,36.2646628 89.3162229,33.2646628 C93.8162229,28.4646628 95.3162229,29.6646628 94.4162229,37.2646628 C93.4162229,45.3646628 88.1162229,55.5646628 81.9162229,61.2646628 C79.1162229,63.8646628 76.8162229,66.2646628 76.8162229,66.4646628 C76.8162229,66.7646628 77.9162229,66.9646628 79.2162229,66.9646628 C83.5162229,66.9646628 87.8162229,68.1646628 87.8162229,69.4646628 C87.8162229,70.1646628 85.9162229,70.9646628 83.6162229,71.3646628 C77.3162229,72.3646628 77.2162229,72.9646628 82.5162229,75.9646628 C90.8162229,80.6646628 99.0162229,90.2646628 101.316223,97.9646628 L102.016223,100.464663 L99.7162229,98.2646628 C97.3162229,96.0646628 90.9162229,92.9646628 88.7162229,92.9646628 C87.9162229,92.9646628 88.0162229,93.5646628 89.0162229,94.7646628 C90.8162229,96.7646628 93.2162229,101.364663 94.3162229,104.764663 L95.0162229,107.064663 L91.6162229,104.964663 C89.8162229,103.864663 86.6162229,102.964663 84.5162229,102.964663 L80.8162229,102.964663 L85.3162229,107.264663 C89.1162229,110.964663 89.8162229,112.264663 89.8162229,115.464663 C89.8162229,118.464663 89.1162229,119.864663 86.2162229,122.564663 L82.7162229,125.964663 L86.3162229,125.964663 C90.4162229,125.964663 95.8162229,123.564663 95.8162229,121.664663 C95.8162229,120.864663 96.2162229,120.964663 96.8162229,121.964663 C98.3162229,124.264663 98.0162229,131.164663 96.1162229,136.964663 C94.1162229,143.064663 87.5162229,150.564663 81.4162229,153.364663 C72.6162229,157.564663 57.5162229,157.064663 48.4162229,152.464663 L43.5162229,149.864663 L44.1162229,154.964663 C44.4162229,157.664663 44.4162229,159.964663 43.9162229,159.964663 C43.5162229,159.964663 40.6162229,158.164663 37.4162229,155.964663 C34.3162229,153.764663 31.4162229,151.964663 31.1162229,151.964663 C30.0162229,151.964663 31.8162229,163.864663 33.7162229,169.464663 C34.8162229,172.464663 35.3162229,175.164663 34.9162229,175.364663 C34.5162229,175.664663 32.1162229,174.864663 29.7162229,173.664663 Z M33.7162229,132.364663 C41.2162229,131.364663 57.8162229,125.264663 57.8162229,123.564663 C57.8162229,122.564663 44.8162229,123.564663 37.8162229,125.064663 C32.7162229,126.164663 22.6162229,131.064663 22.0162229,132.764663 C21.7162229,133.864663 23.7162229,133.764663 33.7162229,132.364663 L33.7162229,132.364663 Z M28.8162229,69.5646628 C28.8162229,68.5646628 24.2162229,68.1646628 23.1162229,69.1646628 C21.3162229,70.6646628 21.5162229,73.6646628 23.5162229,74.8646628 C24.9162229,75.5646628 25.6162229,75.1646628 27.0162229,72.8646628 C28.0162229,71.2646628 28.8162229,69.7646628 28.8162229,69.5646628 L28.8162229,69.5646628 Z M45.6162229,64.4646628 C45.2162229,61.7646628 40.9162229,61.1646628 39.1162229,63.5646628 C37.2162229,66.1646628 37.5162229,67.9646628 39.7162229,67.9646628 C40.8162229,67.9646628 42.0162229,68.4646628 42.4162229,69.1646628 C43.4162229,70.7646628 46.0162229,67.0646628 45.6162229,64.4646628 L45.6162229,64.4646628 Z" id="Shape"></path>
                <path d="M133.916223,80.5646628 C133.016223,79.4646628 132.916223,78.5646628 133.716223,77.0646628 C135.616223,73.5646628 135.016223,69.0646628 132.316223,66.5646628 C130.716223,65.0646628 130.116223,63.6646628 130.416223,62.1646628 C131.716223,57.3646628 135.716223,59.6646628 137.316223,66.1646628 C137.716223,67.7646628 138.516223,68.6646628 139.016223,68.3646628 C139.716223,67.9646628 139.816223,64.9646628 139.416223,60.3646628 C138.916223,53.6646628 139.016223,52.8646628 140.816223,51.7646628 C141.916223,51.0646628 142.816223,50.1646628 142.816223,49.8646628 C142.816223,48.3646628 134.316223,45.8646628 131.116223,46.4646628 C127.416223,47.1646628 127.216223,46.9646628 129.316223,43.0646628 C132.416223,36.8646628 139.516223,36.9646628 143.916223,43.1646628 C146.016223,46.0646628 146.316223,47.5646628 146.316223,56.4646628 C146.316223,61.9646628 145.716223,68.2646628 145.016223,70.5646628 C142.416223,79.2646628 136.916223,84.1646628 133.916223,80.5646628 L133.916223,80.5646628 Z" id="Path"></path>
                <path d="M27.9162229,58.6646628 C26.3162229,56.6646628 27.9162229,45.9646628 29.9162229,44.6646628 C32.1162229,43.2646628 34.6162229,44.3646628 36.0162229,47.5646628 C37.1162229,49.8646628 37.0162229,50.3646628 35.1162229,51.8646628 C34.0162229,52.8646628 32.3162229,55.0646628 31.4162229,56.7646628 C29.5162229,60.3646628 29.4162229,60.4646628 27.9162229,58.6646628 Z" id="Path"></path>
                <path d="M0.716222892,38.3646628 C-2.38377711,34.5646628 5.21622289,26.5646628 11.3162229,27.1646628 C13.6162229,27.3646628 14.7162229,28.2646628 15.9162229,30.9646628 L17.6162229,34.4646628 L14.4162229,35.1646628 C12.7162229,35.5646628 9.21622289,36.7646628 6.61622289,37.8646628 C2.51622289,39.5646628 1.81622289,39.6646628 0.716222892,38.3646628 Z" id="Path"></path>
                <path d="M24.8162229,37.5646628 C24.8162229,36.6646628 25.3162229,35.9646628 25.9162229,35.9646628 C26.4162229,35.9646628 25.7162229,34.8646628 24.2162229,33.5646628 C20.5162229,30.4646628 20.3162229,24.5646628 23.7162229,21.8646628 C26.2162229,19.8646628 28.3162229,19.3646628 27.3162229,20.9646628 C26.4162229,22.4646628 28.6162229,28.4646628 30.8162229,30.4646628 C33.4162229,32.7646628 33.5162229,37.9646628 31.1162229,37.9646628 C30.1162229,37.9646628 28.3162229,38.2646628 27.1162229,38.5646628 C25.4162229,39.0646628 24.8162229,38.7646628 24.8162229,37.5646628 L24.8162229,37.5646628 Z" id="Path"></path>
                <path d="M33.8162229,23.3646628 C31.8162229,18.2646628 36.7162229,12.7646628 46.6162229,8.86466275 C51.3162229,6.96466275 54.3162229,6.56466275 64.5162229,6.56466275 C75.6162229,6.46466275 76.5162229,6.36466275 75.7162229,4.76466275 C75.2162229,3.86466275 73.8162229,2.36466275 72.6162229,1.56466275 C69.8162229,-0.435337249 71.8162229,-0.535337249 76.2162229,1.36466275 C82.4162229,3.96466275 89.4162229,11.4646628 91.3162229,17.7646628 C92.2162229,20.7646628 90.4162229,20.6646628 86.6162229,17.4646628 C84.6162229,15.7646628 82.4162229,14.9646628 80.0162229,14.9646628 C75.4162229,14.9646628 59.1162229,18.8646628 47.0162229,22.8646628 C35.8162229,26.6646628 35.0162229,26.6646628 33.8162229,23.3646628 L33.8162229,23.3646628 Z" id="Path"></path>
            </g>
            <g id="Group" transform="translate(8.092165, 42.202026)" fill="#FF1646" fill-rule="nonzero">
                <path d="M170.907835,123.7 C170.907835,122.9 169.307835,119.9 167.407835,117 C165.407835,114.1 164.207835,111.3 164.607835,110.7 C165.007835,110 165.607835,107 166.007835,104 L166.507835,98.5 L168.607835,103 L170.707835,107.5 L171.807835,104.7 C172.407835,103.1 172.907835,101.2 172.907835,100.4 C172.907835,99.6 173.407835,99 174.007835,99 C174.807835,99 175.007835,101.2 174.707835,106 C174.307835,111.5 174.507835,113.2 175.707835,114.2 C177.407835,115.7 180.307835,122 179.507835,122.7 C179.307835,123 178.607835,122.3 178.007835,121.2 C177.407835,120.2 175.907835,118.6 174.507835,117.7 L172.107835,116.1 L172.607835,119.9 C172.907835,122.2 172.707835,124 172.007835,124.4 C171.407835,124.8 170.907835,124.5 170.907835,123.7 L170.907835,123.7 Z" id="Path"></path>
                <path d="M0.207835444,88.6 C-0.292164556,84.6 -0.0921645558,84.1 3.10783544,81.7 C7.00783544,78.7 18.8078354,74 22.3078354,74 C23.8078354,74 25.0078354,74.9 25.7078354,76.5 C27.4078354,80.1 27.2078354,87.2 25.4078354,89.6 C24.1078354,91.3 24.0078354,91.2 24.6078354,87.8 C25.3078354,82.8 24.4078354,83 21.8078354,88.3 C20.6078354,90.6 18.3078354,94 16.6078354,95.8 C14.2078354,98.3 13.9078354,99 15.2078354,99 C17.5078354,99 17.4078354,100.7 15.0078354,102 C12.4078354,103.3 9.90783544,103.3 7.00783544,101.7 C3.90783544,100.2 0.807835444,94.1 0.207835444,88.6 Z" id="Shape"></path>
                <path d="M53.2078354,81.9 C48.2078354,79.8 45.9078354,75.9 45.9078354,69.6 C45.9078354,66 46.4078354,64.7 48.2078354,63.5 C53.7078354,60 75.9078354,54.3 79.3078354,55.6 C83.4078354,57.2 86.2078354,69.5 84.0078354,76.2 C81.7078354,83 78.2078354,85 65.8078354,86.5 C61.3078354,87 60.0078354,86.8 58.8078354,85.4 C58.1078354,84.5 55.5078354,82.9 53.2078354,81.9 Z M80.6078354,69.4 C81.3078354,63.3 79.8078354,62.1 78.0078354,67.2 C77.4078354,68.9 75.1078354,72.7 72.9078354,75.6 C70.7078354,78.5 68.9078354,81.4 68.9078354,82 C68.9078354,83.3 71.2078354,83.3 74.4078354,81.8 C77.8078354,80.2 79.9078354,76.1 80.6078354,69.4 Z" id="Shape"></path>
                <path d="M123.907835,66.1 C120.907835,64.5 114.007835,61.7 108.707835,59.9 C99.5078354,56.7 96.7078354,55 100.607835,55 C105.207835,55 131.907835,66 131.907835,67.9 C131.907835,69.6 129.807835,69.1 123.907835,66.1 Z" id="Path"></path>
                <path d="M43.0078354,23.3 C46.4078354,15.3 52.8078354,8.2 61.2078354,3.1 L65.2078354,0.7 L62.0078354,5.4 C60.2078354,8 58.9078354,10.3 59.2078354,10.6 C59.4078354,10.8 60.9078354,10.6 62.4078354,10 C65.7078354,8.7 71.4078354,8.5 75.7078354,9.4 C79.9078354,10.4 79.8078354,12 75.6078354,12 C66.9078354,12 52.8078354,17.9 45.6078354,24.5 C43.5078354,26.4 41.6078354,28 41.4078354,28 C41.2078354,28 41.9078354,25.9 43.0078354,23.3 Z" id="Path"></path>
                <path d="M130.507835,22.3 C128.807835,20.4 126.607835,18.4 125.407835,17.8 C123.707835,17.1 123.407835,16.2 123.707835,13 C123.907835,10.8 123.607835,7.6 123.007835,5.8 L121.907835,2.5 L125.407835,6.4 C128.707835,10.1 128.907835,10.2 129.107835,7.9 C129.107835,6.6 129.107835,4.3 129.007835,2.8 C128.907835,1.2 129.007835,0 129.307835,0 C130.607835,0 132.907835,6.3 132.907835,10 C132.907835,12.2 133.307835,14 133.807835,14 C135.007835,14 140.907835,19.9 140.907835,21 C140.907835,21.5 139.307835,21 137.407835,19.8 C133.207835,17.4 132.507835,17.7 133.907835,21.4 C136.007835,27.1 134.707835,27.4 130.507835,22.3 L130.507835,22.3 Z" id="Path"></path>
            </g>
            <g id="GlassesReflection" transform="translate(11.000000, 106.000000)" fill="#FFFFFF">
                <path d="M57.5917341,12.5320908 C59.2917341,9.53209076 55.2917341,0.232090758 52.2917341,0.232090758 C48.3917341,0.232090758 47.3917341,10.1320908 50.9917341,12.6320908 C53.8917341,14.7320908 56.4917341,14.6320908 57.5917341,12.5320908 Z" id="Path" transform="translate(53.380820, 7.195037) scale(-1, 1) rotate(177.000000) translate(-53.380820, -7.195037) "></path>
                <path d="M8.61761878,29.1943887 C8.61761878,25.2943887 5.71761878,18.1943887 4.21761878,18.1943887 C2.61761878,18.1943887 0.617618784,22.4943887 0.617618784,25.6943887 C0.617618784,28.1943887 6.11761878,33.5943887 7.71761878,32.5943887 C8.21761878,32.2943887 8.61761878,30.7943887 8.61761878,29.1943887 Z" id="Path" transform="translate(4.617619, 25.455413) scale(-1, 1) rotate(-185.000000) translate(-4.617619, -25.455413) "></path>
            </g>
        </g>
    </g>
</svg>